PathFileType	4	(X/Y/Z)	/Users/itak/Documents/Research/Walk-IL/dataset/trc/00514_00183.trc
DataRate	CameraRate	NumFrames	NumMarkers	Units	OrigDataRate	OrigDataStartFrame	OrigNumFrames
100.000000	100.000000	4	53	mm	100.000000	241	483
Frame#	Time	RPSI			LPSI			L3			STRN			T10			C7			CLAV			RBAK			LBAK			LSHO			LUPA			LAEL			LAOL			LWTS			LWPS			LFRA			LHPS			LHTS			RSHO			RUPA			RAEL			RAOL			RWTS			RWPS			RFRA			RIFD			RHTS			RHPS			RBHD			LFHD			RFHD			LBHD			LHIP			RHIP			RASI			LASI			LKNE			LTHI			LANK			LTIP			LTOE			LMT1			LMT5			LHEE			RKNE			RTHI			RANK			RTIP			RTOE			RMT1			RMT5			RHEE			LIFD			
		X1	Y1	Z1	X2	Y2	Z2	X3	Y3	Z3	X4	Y4	Z4	X5	Y5	Z5	X6	Y6	Z6	X7	Y7	Z7	X8	Y8	Z8	X9	Y9	Z9	X10	Y10	Z10	X11	Y11	Z11	X12	Y12	Z12	X13	Y13	Z13	X14	Y14	Z14	X15	Y15	Z15	X16	Y16	Z16	X17	Y17	Z17	X18	Y18	Z18	X19	Y19	Z19	X20	Y20	Z20	X21	Y21	Z21	X22	Y22	Z22	X23	Y23	Z23	X24	Y24	Z24	X25	Y25	Z25	X26	Y26	Z26	X27	Y27	Z27	X28	Y28	Z28	X29	Y29	Z29	X30	Y30	Z30	X31	Y31	Z31	X32	Y32	Z32	X33	Y33	Z33	X34	Y34	Z34	X35	Y35	Z35	X36	Y36	Z36	X37	Y37	Z37	X38	Y38	Z38	X39	Y39	Z39	X40	Y40	Z40	X41	Y41	Z41	X42	Y42	Z42	X43	Y43	Z43	X44	Y44	Z44	X45	Y45	Z45	X46	Y46	Z46	X47	Y47	Z47	X48	Y48	Z48	X49	Y49	Z49	X50	Y50	Z50	X51	Y51	Z51	X52	Y52	Z52	X53	Y53	Z53	

242	2.41	3.315649509429932	916.721435546875	-232.3653564453125	40.82664489746094	923.8765258789062	-350.9939575195312	15.5190601348877	993.236572265625	-284.5244140625	218.6477661132812	1159.987426757812	-226.9556884765625	-5.130390644073486	1097.079711914062	-277.1002197265625	33.41438674926758	1326.368774414062	-255.4956970214844	182.4600677490234	1254.187377929688	-230.2444000244141	-30.93966674804688	1200.921020507812	-184.8178863525391	25.2153491973877	1274.399169921875	-346.644287109375	128.0131988525391	1327.028076171875	-400.4366455078125	122.3871536254883	1203.249755859375	-466.8630676269531	128.5111999511719	996.1446533203125	-507.24169921875	58.47994232177734	984.1025390625	-436.0982055664062	201.2690277099609	795.6829223632812	-485.2422180175781	118.2833709716797	771.7185668945312	-523.23974609375	140.5249176025391	909.2001953125	-516.3827514648438	136.0805358886719	716.8043823242188	-525.346435546875	200.4094543457031	719.0799560546875	-510.2095336914062	56.24021148681641	1318.341064453125	-100.7888565063477	32.08575820922852	1247.737915039062	-49.91597366333008	59.72817611694336	981.1336059570312	-2.706898212432861	22.26392364501953	955.806884765625	-50.35538101196289	202.6189270019531	805.00537109375	-14.49157428741455	129.7393341064453	764.134521484375	21.11228942871094	71.08832550048828	926.9496459960938	5.237800121307373	242.0160827636719	653.077392578125	-1.340576171875	234.2823333740234	720.8792114257812	16.81256675720215	166.8029174804688	702.935791015625	28.46100234985352	49.51688003540039	1475.486572265625	-164.2189788818359	220.4292449951172	1544.414428710938	-242.0839996337891	169.6452178955078	1530.1455078125	-126.1088790893555	99.86225128173828	1488.8935546875	-315.6724548339844	193.4015350341797	871.96630859375	-441.7805480957031	64.66812133789062	811.3709106445312	-87.506591796875	179.7900238037109	860.5968017578125	-111.6570892333984	249.073974609375	904.3111572265625	-340.2258605957031	351.659912109375	488.5329895019531	-353.1838073730469	302.3065490722656	632.5927734375	-394.9796142578125	354.3060913085938	47.64035415649414	-411.5750427246094	370.521728515625	337.5887145996094	-370.3659362792969	485.0090942382812	46.88068389892578	-255.1470031738281	405.0061645507812	40.93754959106445	-269.5470275878906	449.7442321777344	47.16116714477539	-361.1476440429688	282.7029113769531	39.00861740112305	-383.1779174804688	41.49802398681641	437.3026733398438	-150.8681945800781	86.75633239746094	682.927001953125	-89.64279174804688	-281.8945922851562	149.2701721191406	-230.5983123779297	-30.70471000671387	312.5745849609375	-176.4206085205078	-147.9724578857422	35.94662475585938	-247.0613555908203	-178.6738739013672	59.52655792236328	-295.4093627929688	-213.5711669921875	62.49053573608398	-204.9054412841797	-310.0615234375	186.8854827880859	-282.7273254394531	185.0088195800781	638.4579467773438	-489.2733154296875	
243	2.42	14.13315868377686	916.3344116210938	-232.3869323730469	52.5776481628418	925.0977172851562	-350.6643371582031	26.78717422485352	994.1177368164062	-284.235107421875	229.78271484375	1161.094360351562	-225.7058410644531	6.263572692871094	1098.05908203125	-276.8117065429688	44.48378372192383	1327.33154296875	-254.8770904541016	193.4771728515625	1255.23876953125	-229.0279235839844	-19.97391700744629	1201.700561523438	-184.5608062744141	36.84035873413086	1275.423461914062	-346.1025695800781	139.8325500488281	1328.270385742188	-399.3790893554688	134.6121826171875	1204.528198242188	-465.9179382324219	140.775634765625	997.3889770507812	-506.1338195800781	70.42069244384766	985.518798828125	-435.3266906738281	212.2451782226562	796.1974487304688	-483.787841796875	129.1892395019531	772.9747924804688	-522.0974731445312	152.4530792236328	910.4078369140625	-515.2728881835938	146.5067901611328	717.84716796875	-524.1675415039062	210.7162475585938	719.5208740234375	-508.7351989746094	66.67057800292969	1319.121826171875	-99.98204040527344	42.03266525268555	1248.407836914062	-49.47669982910156	65.95259857177734	981.3050537109375	-3.893912076950073	29.36180114746094	956.6718139648438	-52.5067253112793	206.4988708496094	803.1553344726562	-13.5793342590332	132.0328369140625	763.2337036132812	19.78986930847168	76.45116424560547	926.9553833007812	3.806391000747681	243.0476837158203	650.5552368164062	-0.5681355595588684	235.8839416503906	718.3065185546875	17.84255599975586	167.9250793457031	701.3828735351562	27.64208030700684	59.15380859375	1476.081176757812	-163.6707611083984	230.5593872070312	1545.910888671875	-239.6238708496094	178.5972290039062	1531.270751953125	-124.2018814086914	111.0409851074219	1489.844116210938	-314.529052734375	205.9234161376953	874.303955078125	-440.8480834960938	75.22360992431641	810.08544921875	-87.72708892822266	190.1017608642578	860.5914306640625	-111.153205871582	261.1493225097656	906.0181274414062	-338.9016418457031	359.7215270996094	488.018798828125	-352.0558166503906	312.9004211425781	633.2206420898438	-394.0684509277344	354.8591003417969	47.66735458374023	-411.3238830566406	376.3744506835938	336.8121032714844	-369.1216735839844	486.7065124511719	43.87139511108398	-254.6189270019531	405.8241271972656	40.35605621337891	-269.5259094238281	450.6304626464844	46.33510971069336	-360.9701538085938	283.1701049804688	39.35934066772461	-383.1495666503906	59.37324523925781	435.621337890625	-148.2996368408203	99.34194183349609	682.0319213867188	-90.03399658203125	-270.1514282226562	158.8165435791016	-229.6541137695312	-13.81630229949951	313.0340576171875	-173.5888366699219	-144.5916900634766	34.91504669189453	-246.4415893554688	-172.6281127929688	62.43114471435547	-294.6116638183594	-208.173828125	67.37135314941406	-204.5142517089844	-295.3590393066406	198.1810455322266	-281.7191467285156	194.4510803222656	639.0777587890625	-487.712646484375	
244	2.43	24.54493522644043	916.132568359375	-232.4636535644531	64.06814575195312	926.4351196289062	-350.2921447753906	37.79581832885742	995.2334594726562	-284.0219421386719	240.7163543701172	1162.31201171875	-224.2413024902344	17.49106407165527	1099.290161132812	-276.5716857910156	55.49438858032227	1328.510375976562	-254.2196197509766	204.3501739501953	1256.423217773438	-227.6449890136719	-9.217805862426758	1202.738647460938	-184.3604888916016	48.45157623291016	1276.680053710938	-345.535888671875	151.7078247070312	1329.687255859375	-398.1966857910156	146.886474609375	1205.965576171875	-464.8458862304688	153.1291351318359	998.7988891601562	-504.9102478027344	82.27017974853516	987.090576171875	-434.614013671875	223.5044555664062	797.0675659179688	-482.028564453125	140.5238342285156	774.430419921875	-520.8839721679688	164.5359954833984	911.7859497070312	-514.0137329101562	157.4708862304688	719.1141357421875	-522.8701782226562	221.4932403564453	720.326171875	-506.9743957519531	76.8785400390625	1320.119384765625	-99.11273193359375	51.71736526489258	1249.272583007812	-49.01502990722656	72.00273132324219	981.7286987304688	-5.077393531799316	36.24191665649414	957.8175048828125	-54.63916778564453	209.961181640625	801.4714965820312	-12.71840667724609	133.8847351074219	762.6055297851562	18.30532646179199	81.62053680419922	927.2418212890625	2.359718799591064	243.4465942382812	648.1854858398438	0.01149847265332937	236.9133453369141	715.8814697265625	18.72879981994629	168.5222625732422	700.0732421875	26.61376953125	68.77651214599609	1476.84423828125	-163.0438995361328	240.6705627441406	1547.543212890625	-237.0510406494141	187.5380859375	1532.549560546875	-122.1957626342773	122.2280197143555	1490.998046875	-313.2803039550781	218.2516937255859	876.6007690429688	-439.64794921875	85.12445068359375	809.084716796875	-87.85598754882812	199.8605041503906	860.8746337890625	-110.3533706665039	272.9213256835938	907.6868286132812	-337.2508544921875	366.9548645019531	487.3108520507812	-351.174072265625	322.7862854003906	633.5847778320312	-393.2324829101562	355.2220458984375	47.68688201904297	-411.1084594726562	381.4090881347656	335.9152221679688	-368.2194519042969	488.0973815917969	41.32057571411133	-254.2428436279297	406.5029907226562	39.92271423339844	-269.5178833007812	451.3502502441406	45.74116516113281	-360.8427124023438	283.4855041503906	39.56603240966797	-383.1098022460938	77.73128509521484	434.0973815917969	-145.3813781738281	111.3612060546875	681.4229736328125	-90.23645782470703	-256.9537353515625	168.6025543212891	-228.870849609375	3.981682300567627	313.762451171875	-170.6866149902344	-139.7972106933594	33.98089981079102	-245.5753936767578	-165.1818542480469	65.83339691162109	-293.6395263671875	-201.4835052490234	73.08670043945312	-204.0207824707031	-279.1832885742188	209.3564453125	-280.9949340820312	204.4844818115234	640.0452270507812	-485.93310546875	
245	2.44	34.56449127197266	916.1901245117188	-232.5950164794922	75.29298400878906	927.9344482421875	-349.8787231445312	48.54329299926758	996.612548828125	-283.8847961425781	251.4268188476562	1163.657958984375	-222.5280151367188	28.5419921875	1100.780639648438	-276.3952331542969	66.42703247070312	1329.91552734375	-253.5262908935547	215.0581512451172	1257.754638671875	-226.0730743408203	1.30488646030426	1204.052856445312	-184.2364654541016	60.04117584228516	1278.185180664062	-344.9525451660156	163.6352844238281	1331.286254882812	-396.8775329589844	159.2249603271484	1207.576293945312	-463.6394958496094	165.5625762939453	1000.386779785156	-503.5736389160156	94.02797698974609	988.8338012695312	-433.9629211425781	235.0354614257812	798.2915649414062	-479.947509765625	152.2812347412109	776.0750122070312	-519.5923461914062	176.775146484375	913.3387451171875	-512.6005859375	168.9748382568359	720.6085205078125	-521.44189453125	232.7501831054688	721.49755859375	-504.9107055664062	86.81341552734375	1321.351806640625	-98.18988037109375	61.07069396972656	1250.362060546875	-48.54937362670898	77.8780517578125	982.4378662109375	-6.26328182220459	42.84976959228516	959.273681640625	-56.72428894042969	213.0130157470703	800.0164794921875	-11.94394207000732	135.3257751464844	762.29248046875	16.64912605285645	86.5985107421875	927.8446655273438	0.9035265445709229	243.2606201171875	646.039794921875	0.3584324419498444	237.4112548828125	713.6763305664062	19.43441581726074	168.6363525390625	699.0684204101562	25.35620880126953	78.38214111328125	1477.785400390625	-162.3379364013672	250.7597045898438	1549.3056640625	-234.3565368652344	196.4685516357422	1533.9765625	-120.0823593139648	133.4075164794922	1492.369018554688	-311.9225769042969	230.3699340820312	878.8722534179688	-438.1787719726562	94.39363861083984	808.42431640625	-87.92802429199219	209.0565032958984	861.4724731445312	-109.2600936889648	284.3615417480469	909.3406372070312	-335.2676391601562	373.4173889160156	486.5100402832031	-350.4288024902344	331.9901123046875	633.7976684570312	-392.3645935058594	355.4277648925781	47.70390319824219	-410.9147644042969	385.7222290039062	334.9738464355469	-367.5579528808594	489.1678771972656	39.23011779785156	-253.9680633544922	407.0268859863281	39.59319305419922	-269.4905395507812	451.9113159179688	45.32566070556641	-360.7209777832031	283.6725769042969	39.67195510864258	-383.0570678710938	96.46145629882812	432.8859558105469	-142.1862182617188	122.7356109619141	681.1448974609375	-90.19847106933594	-242.2669677734375	178.3151702880859	-228.3224639892578	22.58168029785156	314.8134460449219	-167.7413482666016	-133.1795654296875	33.3514518737793	-244.4299621582031	-155.9884796142578	69.62099456787109	-292.4989624023438	-193.1401214599609	79.44828033447266	-203.4341125488281	-261.6348876953125	220.0601806640625	-280.6569213867188	215.1348724365234	641.3569946289062	-483.9342041015625	
